<svg xmlns="http://www.w3.org/2000/svg" width="1280" height="720" viewBox="0 0 1280 720" fill="none">
  <defs>
    <linearGradient id="bg" x1="0" y1="0" x2="1280" y2="720" gradientUnits="userSpaceOnUse">
      <stop stop-color="#0a0f1c"/>
      <stop offset="1" stop-color="#1e293b"/>
    </linearGradient>
  </defs>
  <rect width="1280" height="720" fill="url(#bg)"/>
  <rect x="70" y="70" width="1140" height="580" rx="24" fill="#0f172a" stroke="#1f2937"/>
  <text x="110" y="130" fill="#e2e8f0" font-family="Segoe UI, Arial, sans-serif" font-size="32" font-weight="700">Focus Mode Preview</text>
  <text x="110" y="168" fill="#94a3b8" font-family="Segoe UI, Arial, sans-serif" font-size="18">Expanded single-panel view with quick panel switch chips</text>
  <rect x="110" y="210" width="1060" height="60" rx="14" fill="#111827" stroke="#334155"/>
  <rect x="130" y="224" width="132" height="32" rx="16" fill="#10b98133" stroke="#10b981"/>
  <text x="160" y="246" fill="#6ee7b7" font-family="Segoe UI, Arial, sans-serif" font-size="14" font-weight="700">Map</text>
  <rect x="280" y="224" width="132" height="32" rx="16" fill="#1f2937" stroke="#334155"/>
  <text x="301" y="246" fill="#cbd5e1" font-family="Segoe UI, Arial, sans-serif" font-size="14" font-weight="700">Signals</text>
  <rect x="430" y="224" width="132" height="32" rx="16" fill="#1f2937" stroke="#334155"/>
  <text x="454" y="246" fill="#cbd5e1" font-family="Segoe UI, Arial, sans-serif" font-size="14" font-weight="700">Actions</text>
  <rect x="110" y="292" width="1060" height="320" rx="18" fill="#020617" stroke="#334155"/>
  <circle cx="530" cy="450" r="96" fill="#06b6d433"/>
  <circle cx="530" cy="450" r="56" fill="#22c55e55"/>
  <circle cx="530" cy="450" r="20" fill="#f43f5e"/>
  <text x="640" y="428" fill="#f8fafc" font-family="Segoe UI, Arial, sans-serif" font-size="22" font-weight="700">Landfall Surge Core</text>
  <text x="640" y="458" fill="#94a3b8" font-family="Segoe UI, Arial, sans-serif" font-size="16">Focus mode keeps one panel large and readable in the field.</text>
  <text x="640" y="486" fill="#34d399" font-family="Segoe UI, Arial, sans-serif" font-size="16" font-weight="600">Realtime transport: Socket live</text>
</svg>
