<svg xmlns="http://www.w3.org/2000/svg" width="1400" height="800" viewBox="0 0 1400 800" role="img" aria-label="Disaster dashboard 6-panel layout preview">
  <defs>
    <linearGradient id="bg" x1="0" y1="0" x2="1" y2="1">
      <stop offset="0%" stop-color="#0b1220" />
      <stop offset="100%" stop-color="#111827" />
    </linearGradient>
  </defs>
  <rect width="1400" height="800" fill="url(#bg)" />
  <rect x="40" y="40" width="250" height="720" rx="20" fill="#0f172a" stroke="#1f2937" />
  <text x="70" y="86" fill="#93c5fd" font-family="Segoe UI, Arial" font-size="24" font-weight="700">Modules</text>
  <g fill="#e5e7eb" font-family="Segoe UI, Arial" font-size="18">
    <text x="70" y="140">Overview</text><text x="70" y="185">Geo map</text><text x="70" y="230">Signals</text>
    <text x="70" y="275">Action queue</text><text x="70" y="320">Incident feed</text><text x="70" y="365">Features</text>
  </g>
  <rect x="320" y="40" width="1040" height="110" rx="20" fill="#111827" stroke="#1f2937" />
  <text x="360" y="108" fill="#34d399" font-family="Segoe UI, Arial" font-size="34" font-weight="700">Disaster Operations Center</text>
  <rect x="320" y="170" width="700" height="590" rx="20" fill="#0b1220" stroke="#1f2937" />
  <rect x="1040" y="170" width="320" height="185" rx="18" fill="#0f172a" stroke="#1f2937" />
  <rect x="1040" y="370" width="320" height="185" rx="18" fill="#0f172a" stroke="#1f2937" />
  <rect x="1040" y="575" width="320" height="185" rx="18" fill="#0f172a" stroke="#1f2937" />
  <text x="1070" y="224" fill="#22d3ee" font-family="Segoe UI, Arial" font-size="22">Signals</text>
  <text x="1070" y="424" fill="#fbbf24" font-family="Segoe UI, Arial" font-size="22">Actions</text>
  <text x="1070" y="624" fill="#f472b6" font-family="Segoe UI, Arial" font-size="22">Incidents</text>
</svg>